<?xml version="1.0" encoding="UTF-8"?>
<svg width="172px" height="44px" viewBox="0 0 172 44" version="1.1" xmlns="http://www.w3.org/2000/svg" xmlns:xlink="http://www.w3.org/1999/xlink">
    <!-- Generator: Sketch 51.2 (57519) - http://www.bohemiancoding.com/sketch -->
    <title>Logotype</title>
    <desc>Created with Sketch.</desc>
    <defs>
        <polygon id="path-1" points="0 0.164933333 21.8820537 0.164933333 21.8820537 26.7279333 0 26.7279333"></polygon>
        <polygon id="path-3" points="0.254213953 0.0906666667 27.9191907 0.0906666667 27.9191907 44 0.254213953 44"></polygon>
        <polygon id="path-5" points="0.2853 0.169975652 25.7613 0.169975652 25.7613 38 0.2853 38"></polygon>
    </defs>
    <g id="Page-1" stroke="none" stroke-width="1" fill="none" fill-rule="evenodd">
        <g id="Tablet-Copy" transform="translate(-123.000000, -33.000000)">
            <g id="Logotype" transform="translate(123.000000, 33.000000)">
                <g id="Group-3" transform="translate(0.000000, 5.000000)">
                    <mask id="mask-2" fill="white">
                        <use xlink:href="#path-1"></use>
                    </mask>
                    <g id="Clip-2"></g>
                    <path d="M5.61059104,18.3396 C5.67856119,20.7216 7.39587463,21.9126 10.7625313,21.9126 C12.0542925,21.9126 13.1165313,21.6276 13.9502328,21.0582667 C14.7832776,20.4886 15.1999642,19.8242667 15.1999642,19.0646 C15.1999642,18.3056 14.9451582,17.7186 14.4348896,17.3042667 C13.9246209,16.8896 13.125397,16.5106 12.0375463,16.1649333 L6.6308,14.1972667 C2.61826269,12.7822667 0.61199403,10.4692667 0.61199403,7.2586 C0.61199403,5.11893333 1.55536716,3.40126667 3.44277015,2.1066 C5.33017313,0.812266667 7.8628,0.164933333 11.0429493,0.164933333 C14.2221134,0.164933333 16.6706806,0.872933333 18.387994,2.28793333 C20.1049791,3.70393333 20.9971284,5.48126667 21.0657552,7.62126667 L15.4038746,7.62126667 C15.3355761,6.7926 14.9451582,6.1376 14.2309791,5.6536 C13.5168,5.1706 12.4969194,4.92893333 11.1706806,4.92893333 C9.84444179,4.92893333 8.81536716,5.1966 8.08444179,5.73126667 C7.35318806,6.26693333 6.98772537,6.87926667 6.98772537,7.56926667 C6.98772537,8.77826667 7.99053134,9.6756 9.99712836,10.2619333 L15.8632478,12.4886 C17.8015463,13.1449333 19.2883522,13.9819333 20.3259642,14.9996 C21.3632478,16.0186 21.8820537,17.3389333 21.8820537,18.9609333 C21.8820537,21.0322667 20.9130687,22.8276 18.9747701,24.3462667 C16.9678448,25.9342667 14.3156955,26.7279333 11.0173373,26.7279333 C7.71865075,26.7279333 5.06650149,25.9952667 3.06023284,24.5272667 C1.05330746,23.0606 0.0334268657,20.9986 -6.56716418e-05,18.3396 L5.61059104,18.3396 Z" id="Fill-1" fill="#4A61E3" mask="url(#mask-2)"></path>
                </g>
                <path d="M40.9820294,26.1111645 C39.4180334,29.3708208 36.9023109,31 33.4345338,31 C29.0488445,31 26.1585378,29.3036549 24.7649267,25.9093422 C24.255085,24.7337763 24,23.3057704 24,21.625 L24,6 L30.0179706,6 L30.0179706,21.0205067 C30.0179706,22.6331378 30.408313,23.834986 31.1906393,24.6241045 C31.9726373,25.4141963 32.9322428,25.8084311 34.0717538,25.8084311 C35.2106082,25.8084311 36.1708703,25.6494393 36.9535249,25.3298334 C37.7348663,25.0105519 38.4147647,24.5319541 38.99322,23.8933911 C40.2505888,22.4488371 40.9134158,20.5162756 40.9820294,18.0970045 L40.9820294,6 L47,6 L47,30.5463867 L40.9820294,30.5463867 L40.9820294,26.1111645 Z" id="Fill-4" fill="#4A61E3"></path>
                <path d="M56.9158709,10.054158 C58.547824,6.68550197 61.1653178,5 64.7696656,5 C67.8293724,5 70.1323599,6.02505354 71.6796129,8.07415435 C73.2265376,10.123926 74,12.8338107 74,16.2024667 L74,31 L67.9823577,31 L67.9823577,16.2024667 C67.9823577,14.3267797 67.5398164,12.9119643 66.6563753,11.9560079 C65.7719494,11.0010579 64.5313236,10.5230797 62.9335132,10.5230797 C61.3350462,10.5230797 59.9670421,11.2526253 58.8281877,12.7113812 C57.6886767,14.1704724 57.0859276,16.3587739 57.0179706,19.276621 L57.0179706,31 L51,31 L51,5.67755502 L56.2527156,5.67755502 L56.9158709,10.054158 Z" id="Fill-6" fill="#4A61E3"></path>
                <path d="M89.5816376,9.94740805 C87.8951652,9.94740805 86.5801726,10.5183149 85.6369852,11.6580958 C84.6921699,12.7988932 84.1360899,14.2632609 83.9677682,16.0528931 L94.4365945,16.0528931 C94.4365945,13.2813688 93.5936839,11.4212627 91.9081882,10.4739299 C91.2674589,10.123593 90.491942,9.94740805 89.5816376,9.94740805 M99.3677356,12.6318563 C99.7890282,14.1053721 100,15.4565749 100,16.6841095 C100,17.9129993 99.9319551,19.0185597 99.7978187,20.0001129 L83.9173042,20.0001129 C83.984698,22.0709634 84.4737099,23.7548846 85.3836888,25.0528931 C86.2939932,26.3515793 87.676054,27.0004141 89.5308481,27.0004141 C91.9915351,27.0004141 93.4582452,25.8775741 93.9309783,23.631894 L99.9495361,23.631894 C99.5448478,26.1936905 98.4147811,28.210669 96.5609637,29.6841848 C94.6391014,31.2288522 92.2952955,32 89.5308481,32 C86.2939932,32 83.5796842,30.7724655 81.3882468,28.3160411 C79.12909,25.7552611 78,22.473817 78,18.4740805 C78,14.3686331 79.12909,11.0709257 81.3882468,8.57892557 C83.5458245,6.19331401 86.2601335,5 89.5308481,5 C92.9360247,5 95.5826144,6.24616948 97.4712681,8.73681437 C98.3135276,9.86033204 98.945792,11.1580017 99.3677356,12.6318563" id="Fill-8" fill="#4A61E3"></path>
                <path d="M110.040866,11.3031485 C111.542349,7.76771618 113.794903,6 116.798528,6 C117.378557,6 118.111831,6.11834627 119,6.35341318 L118.897506,12.3133185 C117.941777,12.1110894 117.003186,12.0099749 116.081731,12.0099749 C112.054158,12.0099749 110.040866,14.7546981 110.040866,20.2425188 L110.040866,31 L104,31 L104,6.40413302 L110.040866,6.40413302 L110.040866,11.3031485 Z" id="Fill-10" fill="#4A61E3"></path>
                <g id="Group-14" transform="translate(118.000000, 0.000000)">
                    <mask id="mask-4" fill="white">
                        <use xlink:href="#path-3"></use>
                    </mask>
                    <g id="Clip-13"></g>
                    <path d="M18.6134233,14.1488667 C18.6134233,12.7508667 18.2341209,11.6115333 17.4755163,10.7315333 C16.716586,9.85086667 15.5614233,9.41086667 14.0106791,9.41086667 C12.4596093,9.41086667 11.2797023,9.85086667 10.4706326,10.7315333 C9.66123721,11.6115333 9.25686512,12.7508667 9.25686512,14.1488667 C9.25686512,15.5468667 9.66123721,16.6952 10.4706326,17.5922 C11.2797023,18.4902 12.4596093,18.9382 14.0106791,18.9382 C15.5614233,18.9382 16.716586,18.4902 17.4755163,17.5922 C18.2341209,16.6952 18.6134233,15.5468667 18.6134233,14.1488667 Z M10.8750047,31.5725333 C7.70546977,31.7105333 6.1211907,32.9358667 6.1211907,35.2492 C6.1211907,36.4222 6.78635349,37.3632 8.11895814,38.0712 C9.45026047,38.7782 11.0270512,39.1325333 12.8473767,39.1325333 C14.6683535,39.1325333 16.0924465,38.9772 17.1212837,38.6668667 C18.1494698,38.3558667 19.0177953,37.9418667 19.7259349,37.4238667 C21.2431442,36.3885333 22.0017488,35.1455333 22.0017488,33.6958667 C22.0017488,33.0742 21.7910977,32.5645333 21.3694698,32.1685333 C20.9475163,31.7708667 20.3328186,31.5725333 19.5237488,31.5725333 L10.8750047,31.5725333 Z M6.32337674,20.6988667 C4.33374884,18.9732 3.33942326,16.8155333 3.33942326,14.2265333 C3.33942326,11.4998667 4.38421395,9.2902 6.47509767,7.59853333 C8.49793488,5.97653333 10.8157488,5.16486667 13.4291907,5.16486667 C16.0419814,5.16486667 18.2253302,5.66586667 19.978586,6.66653333 C20.1810977,4.69886667 21.0070977,3.11153333 22.4569116,1.90286667 C23.8731907,0.694866667 25.5421209,0.0905333333 27.4643535,0.0905333333 L27.160586,5.94153333 C24.2606326,5.94153333 22.7603535,6.92553333 22.6594233,8.8932 C23.9064,10.4812 24.5308651,12.1035333 24.5308651,13.7602 C24.5308651,15.4175333 24.2437023,16.8075333 23.6710047,17.9288667 C23.0970047,19.0508667 22.3221209,19.9918667 21.3444,20.7508667 C19.3215628,22.4075333 16.8595163,23.2362 13.960214,23.2362 C12.3078884,23.2362 10.8069581,22.9772 9.45905116,22.4595333 C8.10984186,22.8738667 7.43588837,23.7022 7.43588837,24.9452 C7.43588837,26.4982 8.71705116,27.2748667 11.2797023,27.2748667 L19.5237488,27.2748667 C25.1201674,27.2748667 27.9191907,29.2775333 27.9191907,33.2815333 C27.9191907,34.6278667 27.5903535,35.9478667 26.9330047,37.2425333 C26.2753302,38.5372 25.3223535,39.6845333 24.0753767,40.6858667 C21.310214,42.8945333 17.8372372,44.0002 13.6567721,44.0002 C9.61077209,44.0002 6.32337674,43.1538667 3.79426047,41.4628667 C1.43379535,39.8398667 0.254213953,37.8552 0.254213953,35.5082 C0.254213953,33.9545333 0.717190698,32.7198667 1.64509767,31.8058667 C2.57202791,30.8915333 3.79426047,30.3128667 5.31179535,30.0712 C3.32184186,28.8285333 2.32784186,27.2932 2.32784186,25.4625333 C2.32784186,24.2548667 2.69835349,23.2448667 3.44035349,22.4335333 C4.18170233,21.6228667 5.14249302,21.0445333 6.32337674,20.6988667 Z" id="Fill-12" fill="#4A61E3" mask="url(#mask-4)"></path>
                </g>
                <g id="Group-17" transform="translate(146.000000, 6.000000)">
                    <mask id="mask-6" fill="white">
                        <use xlink:href="#path-5"></use>
                    </mask>
                    <g id="Clip-16"></g>
                    <path d="M8.20763333,0.169975652 L14.2663,18.1353843 L19.5476333,0.169975652 L25.7613,0.169975652 L16.1303,29.633193 C15.1286333,32.61008 13.9116333,34.7486539 12.4796333,36.0495757 C11.0469667,37.3495061 9.22563333,38.0001322 7.01696667,38.0001322 C4.7723,38.0001322 2.52896667,37.4522713 0.2853,36.3575409 L0.2853,31.0190365 C2.07996667,32.1484626 3.8923,32.7131757 5.7223,32.7131757 C6.9303,32.7131757 7.92296667,32.2333843 8.69996667,31.2754539 C9.47663333,30.317193 10.1059667,29.06848 10.5896333,27.5286539 L11.3666333,25.1161496 L1.26963333,0.169975652 L8.20763333,0.169975652 Z" id="Fill-15" fill="#4A61E3" mask="url(#mask-6)"></path>
                </g>
            </g>
        </g>
    </g>
</svg>