<?xml version="1.0" encoding="UTF-8"?>
<svg width="80px" height="80px" viewBox="0 0 80 80" version="1.1" xmlns="http://www.w3.org/2000/svg" xmlns:xlink="http://www.w3.org/1999/xlink">
    <!-- Generator: Sketch 51.2 (57519) - http://www.bohemiancoding.com/sketch -->
    <title>Logo</title>
    <desc>Created with Sketch.</desc>
    <defs>
        <polygon id="path-1" points="0.00012972973 0.00012972973 80 0.00012972973 80 80 0.00012972973 80"></polygon>
    </defs>
    <g id="Page-1" stroke="none" stroke-width="1" fill="none" fill-rule="evenodd">
        <g id="Tablet-Copy" transform="translate(-24.000000, -11.000000)">
            <g id="Logo" transform="translate(24.000000, 11.000000)">
                <g id="Group-3">
                    <mask id="mask-2" fill="white">
                        <use xlink:href="#path-1"></use>
                    </mask>
                    <g id="Clip-2"></g>
                    <path d="M72.4636973,53.4535351 C75.7181838,49.8409946 78.3772108,45.2485622 80.0001297,40.0001297 L70.2704,40.0001297 C71.8851027,35.9914811 72.7292108,31.4236973 72.4684541,26.5575351 C72.2150486,21.7017514 70.8485622,16.5748324 68.2842378,11.7155892 L61.4042378,18.5955892 C59.7116973,14.619373 57.0790486,10.7923459 53.4531027,7.53612973 C49.8409946,4.28164324 45.2485622,1.62304865 40.0001297,0.00012972973 L40.0001297,9.72985946 C35.9910486,8.11472432 31.4236973,7.27061622 26.5579676,7.53180541 C21.7013189,7.78477838 16.5748324,9.1516973 11.7160216,11.7155892 L18.5960216,18.5955892 C14.619373,20.2885622 10.7927784,22.9212108 7.53612973,26.5467243 C4.28164324,30.1592649 1.62304865,34.7508324 0.00012972973,40.0001297 L9.72985946,40.0001297 C8.11472432,44.0083459 7.27061622,48.5761297 7.53180541,53.4422919 C7.78521081,58.2980757 9.1516973,63.425427 11.7160216,68.2842378 L18.5960216,61.4042378 C20.2885622,65.3804541 22.9212108,69.2079135 26.5467243,72.4636973 C30.1592649,75.7181838 34.7512649,78.3772108 40.0001297,80.0001297 L40.0001297,70.2704 C44.0087784,71.8851027 48.5765622,72.7296432 53.4422919,72.4684541 C58.2985081,72.2154811 63.425427,70.8485622 68.2842378,68.2842378 L61.4042378,61.4042378 C65.3804541,59.7116973 69.2074811,57.0790486 72.4636973,53.4535351" id="Fill-1" fill="#EF8B3F" mask="url(#mask-2)"></path>
                </g>
                <path d="M70,40.0002145 L62.7027433,40.0002145 C63.9137336,36.993544 64.5468975,33.567767 64.3508569,29.9184952 C64.1612509,26.2760869 63.1360058,22.4312035 61.2129207,18.7866504 L56.0532355,23.9467645 C54.783476,20.9645454 52.809343,18.0942882 50.0900843,15.6521459 C47.380263,13.2112906 43.9364691,11.2169959 39.9997855,10 L39.9997855,17.2972567 C36.993115,16.0862664 33.567767,15.4526736 29.9180662,15.6487142 C26.2760869,15.8387491 22.4307745,16.8635652 18.7866504,18.7866504 L23.9463355,23.9467645 C20.9641164,25.216524 18.0942882,27.190657 15.651717,29.9099157 C13.2112906,32.6193081 11.2169959,36.0635309 10,40.0002145 L17.2968277,40.0002145 C16.0858375,43.006456 15.4531025,46.432233 15.6491431,50.0815048 C15.8383201,53.7239131 16.8639942,57.5692255 18.7866504,61.2133496 L23.9463355,56.0532355 C25.2160951,59.0358836 27.190657,61.9057118 29.9099157,64.3474251 C32.6193081,66.7891384 36.0631019,68.7830041 39.9997855,70 L39.9997855,62.7027433 C43.006456,63.9141625 46.431804,64.5468975 50.0815048,64.3512858 C53.7234841,64.1616799 57.5687965,63.1360058 61.2129207,61.2133496 L56.0532355,56.0532355 C59.0354546,54.783476 61.9057118,52.809343 64.3478541,50.0900843 C66.7882805,47.3806919 68.7830041,43.9364691 70,40.0002145 Z" id="Fill-4" fill="#F8CE32"></path>
                <path d="M58.6666007,47.7355815 C60.5377034,45.6581677 62.0668325,43.0177328 63,39.9997833 L57.4053293,39.9997833 C58.3337291,37.6948206 58.8196003,35.0686887 58.6692013,32.2704865 C58.5235699,29.4783522 57.737334,26.5306178 56.2632501,23.7363164 L52.3073654,27.6926346 C51.3343227,25.4058758 49.8203635,23.2053688 47.7355815,21.3333993 C45.6581677,19.4618632 43.0181662,17.9331675 40.0002167,17 L40.0002167,22.5946707 C37.6948206,21.6662709 35.0686887,21.1803997 32.2709199,21.3307987 C29.4783522,21.4764301 26.5301844,22.2622325 23.7367499,23.7363164 L27.6926346,27.6926346 C25.4063092,28.6656773 23.2058023,30.1796365 21.3333993,32.2644185 C19.4622966,34.3413988 17.9336009,36.9818338 17,39.9997833 L22.5946707,39.9997833 C21.6662709,42.3051794 21.1808331,44.9313113 21.3307987,47.7290801 C21.4764301,50.5216478 22.262666,53.4693822 23.7367499,56.2632501 L27.6926346,52.3073654 C28.6656773,54.5936908 30.1796365,56.7941977 32.2644185,58.6666007 C34.3418323,60.5381368 36.9818338,62.0663991 40.0002167,63 L40.0002167,57.4053293 C42.3051794,58.3337291 44.9317447,58.8191669 47.7295135,58.6692013 C50.5216478,58.5235699 53.4698156,57.7377675 56.2632501,56.2632501 L52.3073654,52.3073654 C54.5941242,51.3343227 56.7946312,49.8203635 58.6666007,47.7355815" id="Fill-6" fill="#FFF62B"></path>
            </g>
        </g>
    </g>
</svg>