<?xml version="1.0" encoding="UTF-8"?>
<svg width="960px" height="450px" viewBox="0 0 960 450" version="1.1" xmlns="http://www.w3.org/2000/svg" xmlns:xlink="http://www.w3.org/1999/xlink">
    <!-- Generator: Sketch 51.2 (57519) - http://www.bohemiancoding.com/sketch -->
    <title>Slider 2</title>
    <desc>Created with Sketch.</desc>
    <defs>
        <polygon id="path-1" points="0 0 115.750059 0 115.750059 122.381818 0 122.381818"></polygon>
        <polygon id="path-3" points="7.78378378e-05 7.78378378e-05 48 7.78378378e-05 48 48 7.78378378e-05 48"></polygon>
    </defs>
    <g id="Slider-2" stroke="none" stroke-width="1" fill="none" fill-rule="evenodd">
        <rect id="Rectangle-5" fill="#7AFAE3" fill-rule="nonzero" x="0" y="0" width="960" height="450"></rect>
        <path d="M845,235.246094 L878.065917,235.246094 C891.320751,235.246094 902.065917,245.99126 902.065917,259.246094 L902.065917,295.183594 C902.065917,308.438428 912.811083,319.183594 926.065917,319.183594 L1001.53516,319.183594" id="Path-3" stroke="#9BA3EE" stroke-width="16" fill-rule="nonzero"></path>
        <path d="M837,131.230469 L877.277344,131.230469 C890.532178,131.230469 901.277344,120.485303 901.277344,107.230469 L901.277344,-18.34375" id="Path-4" stroke="#9BA3EE" stroke-width="16" fill-rule="nonzero"></path>
        <path d="M754.46875,387 L754.46875,483.183594" id="Path-5" stroke="#9BA3EE" stroke-width="16" fill-rule="nonzero"></path>
        <path d="M671.277344,131.277344 L645.277344,131.277344 C632.02251,131.277344 621.277344,120.532178 621.277344,107.277344 L621.277344,48.71875 C621.277344,35.463916 632.02251,24.71875 645.277344,24.71875 L691.457031,24.71875 C704.711865,24.71875 715.457031,13.973584 715.457031,0.71875 L715.457031,-21.4960938" id="Path-6" stroke="#9BA3EE" stroke-width="16" fill-rule="nonzero"></path>
        <path d="M668.242188,328.214844 L628.15625,328.214844 C614.901416,328.214844 604.15625,338.96001 604.15625,352.214844 L604.15625,405.746094 L604.15625,480.984375" id="Path-7" stroke="#9BA3EE" stroke-width="16" fill-rule="nonzero"></path>
        <g id="Phone" transform="translate(661.000000, 49.000000)">
            <rect id="Phone-Body" fill="#4A61E3" fill-rule="nonzero" x="0" y="0" width="194.4" height="351.6" rx="12"></rect>
            <rect id="Phone-Screen" fill="#FFFEEA" fill-rule="nonzero" x="0" y="40.8" width="194.4" height="272.4"></rect>
            <g id="Phone-Contents" opacity="0.8" transform="translate(0.000000, 58.200000)">
                <rect id="Rectangle-2" fill="#FFF088" fill-rule="nonzero" x="0" y="190" width="194.4" height="21.6"></rect>
                <rect id="Rectangle-2-Copy-3" fill="#FFF5A9" fill-rule="nonzero" x="0" y="169" width="194.4" height="21.6"></rect>
                <rect id="Rectangle-2-Copy" fill="#FDEB6F" fill-rule="nonzero" x="0" y="211.8" width="194.4" height="21.6"></rect>
                <rect id="Rectangle-2-Copy-2" fill="#FAE659" fill-rule="nonzero" x="0" y="233.4" width="194.4" height="21.6"></rect>
                <g id="Group-8" transform="translate(42.000000, 0.000000)">
                    <path d="M55.0736842,122.381818 C42.8148916,122.381818 31.2896892,117.578179 22.6213888,108.855291 C13.9527256,100.132769 9.17894737,88.5354739 9.17894737,76.2 C9.17894737,68.7807905 10.9706561,61.403382 14.3605176,54.8652778 L24.0103849,59.9312224 C21.3911196,64.9831117 20.0630747,70.4566612 20.0630747,76.2 C20.0630747,95.6257521 35.768689,111.429608 55.0736842,111.429608 C74.3786794,111.429608 90.0842937,95.6257521 90.0842937,76.2 C90.0842937,56.7744305 74.3786794,40.9703917 55.0736842,40.9703917 L55.0736842,30.0181818 C67.3326582,30.0181818 78.8576792,34.8218211 87.5259796,43.5445261 C96.1946428,52.2670485 100.968421,63.8643435 100.968421,76.2 C100.968421,88.5354739 96.1946428,100.132769 87.5259796,108.855291 C78.8576792,117.578179 67.3324768,122.381818 55.0736842,122.381818" id="Fill-1" fill="#9999FF"></path>
                    <g id="Group-5" transform="translate(0.000000, 13.854545)">
                        <mask id="mask-2" fill="white">
                            <use xlink:href="#path-1"></use>
                        </mask>
                        <g id="Clip-4"></g>
                        <path d="M54.9198739,122.381818 C43.2134026,122.381818 31.8441146,119.027394 22.041249,112.681516 C12.5010182,106.505592 4.87919458,97.809038 -3.61010002e-05,87.5316889 L9.77304616,82.8366938 C13.7849503,91.2873944 20.0540695,98.4398309 27.9020659,103.520129 C35.953672,108.732251 45.2962498,111.487294 54.9198739,111.487294 C68.2752584,111.487294 80.8315473,106.255562 90.2752079,96.7559007 C99.7188686,87.256239 104.919759,74.6254912 104.919759,61.1909091 C104.919759,47.756327 99.7188686,35.1257607 90.2752079,25.6259175 C80.8315473,16.1262558 68.2752584,10.8945239 54.9198739,10.8945239 L54.9198739,0 C63.1294219,0 71.0963711,1.61874467 78.5994225,4.81102174 C85.8436297,7.89326412 92.3484884,12.3044568 97.9333131,17.9223996 C103.518138,23.5403425 107.903326,30.0837751 110.967579,37.3709405 C114.141038,44.9183035 115.750059,52.9326784 115.750059,61.1909091 C115.750059,69.4491398 114.141038,77.4633331 110.967579,85.0108777 C107.903326,92.2980431 103.518138,98.8414757 97.9333131,104.459419 C92.3484884,110.077361 85.8436297,114.488554 78.5994225,117.570978 C71.0963711,120.763255 63.1294219,122.381818 54.9198739,122.381818" id="Fill-3" fill="#FF989E" mask="url(#mask-2)"></path>
                    </g>
                    <path d="M54.7392997,152.4 C40.1600283,152.4 25.9925402,148.25421 13.7684211,140.410532 L19.6565746,131.199993 C30.1198339,137.913614 42.2511517,141.462201 54.7392997,141.462201 C72.1395496,141.462201 88.4982411,134.673838 100.802424,122.347486 C113.106243,110.020768 119.882196,93.6321172 119.882196,76.2 C119.882196,58.7678828 113.106243,42.3790493 100.802424,30.0525144 C88.4982411,17.7261617 72.1395496,10.937799 54.7392997,10.937799 L54.7392997,0 C65.0049468,0 74.966533,2.01547177 84.347292,5.99045024 C93.405066,9.82870622 101.538648,15.3222158 108.522221,22.3183967 C115.505794,29.3147598 120.989261,37.4632378 124.820501,46.5377828 C128.788213,55.935722 130.8,65.9153699 130.8,76.2 C130.8,86.4844478 128.788213,96.464278 124.820501,105.862217 C120.989261,114.93658 115.505794,123.085058 108.522221,130.081421 C101.538648,137.077784 93.405066,142.571476 84.347292,146.409732 C74.966533,150.384528 65.0049468,152.4 54.7392997,152.4" id="Fill-6" fill="#F8CE32"></path>
                </g>
                <g id="Logo" transform="translate(73.200000, 52.800000)">
                    <g id="Group-3">
                        <mask id="mask-4" fill="white">
                            <use xlink:href="#path-3"></use>
                        </mask>
                        <g id="Clip-2"></g>
                        <path d="M43.4782184,32.0721211 C45.4309103,29.9045968 47.0263265,27.1491373 48.0000778,24.0000778 L42.16224,24.0000778 C43.1310616,21.5948886 43.6375265,18.8542184 43.4810724,15.9345211 C43.3290292,13.0210508 42.5091373,9.94489946 40.9705427,7.02935351 L36.8425427,11.1573535 C35.8270184,8.77162378 34.2474292,6.47540757 32.0718616,4.52167784 C29.9045968,2.56898595 27.1491373,0.973829189 24.0000778,7.78378378e-05 L24.0000778,5.83791568 C21.5946292,4.86883459 18.8542184,4.36236973 15.9347805,4.51908324 C13.0207914,4.67086703 9.94489946,5.49101838 7.02961297,7.02935351 L11.157613,11.1573535 C8.77162378,12.1731373 6.47566703,13.7527265 4.52167784,15.9280346 C2.56898595,18.0955589 0.973829189,20.8504995 7.78378378e-05,24.0000778 L5.83791568,24.0000778 C4.86883459,26.4050076 4.36236973,29.1456778 4.51908324,32.0653751 C4.67112649,34.9788454 5.49101838,38.0552562 7.02961297,40.9705427 L11.157613,36.8425427 C12.1731373,39.2282724 13.7527265,41.5247481 15.9280346,43.4782184 C18.0955589,45.4309103 20.8507589,47.0263265 24.0000778,48.0000778 L24.0000778,42.16224 C26.405267,43.1310616 29.1459373,43.6377859 32.0653751,43.4810724 C34.9791049,43.3292886 38.0552562,42.5091373 40.9705427,40.9705427 L36.8425427,36.8425427 C39.2282724,35.8270184 41.5244886,34.2474292 43.4782184,32.0721211" id="Fill-1" fill="#EF8B3F" mask="url(#mask-4)"></path>
                    </g>
                    <path d="M42,24.0001287 L37.621646,24.0001287 C38.3482401,22.1961264 38.7281385,20.1406602 38.6105141,17.9510971 C38.4967505,15.7656521 37.8816035,13.4587221 36.7277524,11.2719902 L33.6319413,14.3680587 C32.8700856,12.5787272 31.6856058,10.8565729 30.0540506,9.39128756 C28.4281578,7.92677434 26.3618815,6.73019754 23.9998713,6 L23.9998713,10.378354 C22.195869,9.65175986 20.1406602,9.27160414 17.9508397,9.38922849 C15.7656521,9.50324947 13.4584647,10.1181391 11.2719902,11.2719902 L14.3678013,14.3680587 C12.5784699,15.1299144 10.8565729,16.3143942 9.39103018,17.9459494 C7.92677434,19.5715848 6.73019754,21.6381185 6,24.0001287 L10.3780966,24.0001287 C9.65150248,25.8038736 9.27186153,27.8593398 9.38948588,30.0489029 C9.50299209,32.2343479 10.1183965,34.5415353 11.2719902,36.7280098 L14.3678013,33.6319413 C15.129657,35.4215301 16.3143942,37.1434271 17.9459494,38.6084551 C19.5715848,40.073483 21.6378611,41.2698025 23.9998713,42 L23.9998713,37.621646 C25.8038736,38.3484975 27.8590824,38.7281385 30.0489029,38.6107715 C32.2340905,38.4970079 34.5412779,37.8816035 36.7277524,36.7280098 L33.6319413,33.6319413 C35.4212728,32.8700856 37.1434271,31.6856058 38.6087124,30.0540506 C40.0729683,28.4284152 41.2698025,26.3618815 42,24.0001287 Z" id="Fill-4" fill="#F8CE32"></path>
                    <path d="M35.1999604,28.6413489 C36.322622,27.3949006 37.2400995,25.8106397 37.8,23.99987 L34.4431976,23.99987 C35.0002374,22.6168923 35.2917602,21.0412132 35.2015208,19.3622919 C35.114142,17.6870113 34.6424004,15.9183707 33.7579501,14.2417899 L31.3844193,16.6155807 C30.8005936,15.2435255 29.8922181,13.9232213 28.6413489,12.8000396 C27.3949006,11.6771179 25.8108997,10.7599005 24.00013,10.2 L24.00013,13.5568024 C22.6168923,12.9997626 21.0412132,12.7082398 19.3625519,12.7984792 C17.6870113,12.885858 15.9181106,13.3573395 14.2420499,14.2417899 L16.6155807,16.6155807 C15.2437855,17.1994064 13.9234814,18.1077819 12.8000396,19.3586511 C11.677378,20.6048393 10.7601606,22.1891003 10.2,23.99987 L13.5568024,23.99987 C12.9997626,25.3831077 12.7084999,26.9587868 12.7984792,28.6374481 C12.885858,30.3129887 13.3575996,32.0816293 14.2420499,33.7579501 L16.6155807,31.3844193 C17.1994064,32.7562145 18.1077819,34.0765186 19.3586511,35.1999604 C20.6050994,36.3228821 22.1891003,37.2398394 24.00013,37.8 L24.00013,34.4431976 C25.3831077,35.0002374 26.9590468,35.2915001 28.6377081,35.2015208 C30.3129887,35.114142 32.0818894,34.6426605 33.7579501,33.7579501 L31.3844193,31.3844193 C32.7564745,30.8005936 34.0767787,29.8922181 35.1999604,28.6413489" id="Fill-6" fill="#FFF62B"></path>
                </g>
            </g>
        </g>
    </g>
</svg>